<svg width="180" height="180" viewBox="0 0 180 180" fill="none" xmlns="http://www.w3.org/2000/svg">
<rect width="180" height="180" rx="36" fill="#F97316"/>
<circle cx="90" cy="90" r="56" fill="#F59E0B" stroke="#1F2937" stroke-width="6"/>
<path d="M34 90H146" stroke="#1F2937" stroke-width="6" stroke-linecap="round"/>
<path d="M90 34C112 54 122 76 122 90C122 104 112 126 90 146" stroke="#1F2937" stroke-width="6" stroke-linecap="round"/>
<path d="M90 34C68 54 58 76 58 90C58 104 68 126 90 146" stroke="#1F2937" stroke-width="6" stroke-linecap="round"/>
<path d="M49 58C64 68 76 80 82 90C76 100 64 112 49 122" stroke="#1F2937" stroke-width="6" stroke-linecap="round"/>
<path d="M131 58C116 68 104 80 98 90C104 100 116 112 131 122" stroke="#1F2937" stroke-width="6" stroke-linecap="round"/>
</svg>
